{
	"asset":{
		"generator":"Khronos glTF Blender I/O v4.2.69",
		"version":"2.0"
	},
	"extensionsUsed":[
		"KHR_materials_specular"
	],
	"scene":0,
	"scenes":[
		{
			"name":"Scene",
			"nodes":[
				0
			]
		}
	],
	"nodes":[
		{
			"mesh":0,
			"name":"hands",
			"rotation":[
				0.7071068286895752,
				0,
				0,
				0.7071068286895752
			],
			"scale":[
				0.009999999776482582,
				0.009999999776482582,
				0.009999999776482582
			],
			"translation":[
				0.3053663671016693,
				0,
				-0.05458999425172806
			]
		}
	],
	"materials":[
		{
			"doubleSided":true,
			"extensions":{
				"KHR_materials_specular":{
					"specularColorFactor":[
						2.0,
						2.0,
						2.0
					]
				}
			},
			"name":"hands",
			"pbrMetallicRoughness":{
				"baseColorFactor":[
					0.5,
					0.5,
					0.5,
					1
				],
				"roughnessFactor":0.858578622341156
			}
		}
	],
	"meshes":[
		{
			"name":"Mesh",
			"primitives":[
				{
					"attributes":{
						"POSITION":0,
						"NORMAL":1,
						"TEXCOORD_0":2
					},
					"indices":3,
					"material":0
				}
			]
		}
	],
	"accessors":[
		{
			"bufferView":0,
			"componentType":5126,
			"count":1968,
			"max":[
				-24.275793075561523,
				12.57962703704834,
				12.04610538482666
			],
			"min":[
				-34.23063278198242,
				-2.1867494583129883,
				-10.85860824584961
			],
			"type":"VEC3"
		},
		{
			"bufferView":1,
			"componentType":5126,
			"count":1968,
			"type":"VEC3"
		},
		{
			"bufferView":2,
			"componentType":5126,
			"count":1968,
			"type":"VEC2"
		},
		{
			"bufferView":3,
			"componentType":5123,
			"count":10416,
			"type":"SCALAR"
		}
	],
	"bufferViews":[
		{
			"buffer":0,
			"byteLength":23616,
			"byteOffset":0,
			"target":34962
		},
		{
			"buffer":0,
			"byteLength":23616,
			"byteOffset":23616,
			"target":34962
		},
		{
			"buffer":0,
			"byteLength":15744,
			"byteOffset":47232,
			"target":34962
		},
		{
			"buffer":0,
			"byteLength":20832,
			"byteOffset":62976,
			"target":34963
		}
	],
	"buffers":[
		{
			"byteLength":83808,
			"uri":"untitled.bin"
		}
	]
}
