{
	"asset":{
		"generator":"Khronos glTF Blender I/O v4.2.69",
		"version":"2.0"
	},
	"extensionsUsed":[
		"KHR_materials_specular"
	],
	"scene":0,
	"scenes":[
		{
			"name":"Scene",
			"nodes":[
				0
			]
		}
	],
	"nodes":[
		{
			"mesh":0,
			"name":"hands",
			"rotation":[
				0.7071068286895752,
				0,
				0,
				0.7071068286895752
			],
			"scale":[
				0.009999999776482582,
				0.009999999776482582,
				0.009999999776482582
			]
		}
	],
	"materials":[
		{
			"doubleSided":true,
			"extensions":{
				"KHR_materials_specular":{
					"specularColorFactor":[
						2.0,
						2.0,
						2.0
					]
				}
			},
			"name":"hands",
			"pbrMetallicRoughness":{
				"baseColorFactor":[
					0.5,
					0.5,
					0.5,
					1
				]
			}
		}
	],
	"meshes":[
		{
			"name":"hands",
			"primitives":[
				{
					"attributes":{
						"POSITION":0,
						"NORMAL":1,
						"COLOR_0":2,
						"COLOR_1":3
					},
					"indices":4,
					"material":0
				}
			]
		}
	],
	"accessors":[
		{
			"bufferView":0,
			"componentType":5126,
			"count":1828,
			"max":[
				-24.275793075561523,
				12.57962703704834,
				12.04610538482666
			],
			"min":[
				-34.23063278198242,
				-2.186749219894409,
				-10.85860824584961
			],
			"type":"VEC3"
		},
		{
			"bufferView":1,
			"componentType":5126,
			"count":1828,
			"type":"VEC3"
		},
		{
			"bufferView":2,
			"componentType":5121,
			"count":1828,
			"normalized":true,
			"type":"VEC4"
		},
		{
			"bufferView":3,
			"componentType":5126,
			"count":1828,
			"type":"VEC3"
		},
		{
			"bufferView":4,
			"componentType":5123,
			"count":10956,
			"type":"SCALAR"
		}
	],
	"bufferViews":[
		{
			"buffer":0,
			"byteLength":21936,
			"byteOffset":0,
			"target":34962
		},
		{
			"buffer":0,
			"byteLength":21936,
			"byteOffset":21936,
			"target":34962
		},
		{
			"buffer":0,
			"byteLength":7312,
			"byteOffset":43872,
			"target":34962
		},
		{
			"buffer":0,
			"byteLength":21936,
			"byteOffset":51184,
			"target":34962
		},
		{
			"buffer":0,
			"byteLength":21912,
			"byteOffset":73120,
			"target":34963
		}
	],
	"buffers":[
		{
			"byteLength":95032,
			"uri":"human%20hand.bin"
		}
	]
}
